# xmcd
#
# Track frame offsets:
#	150
#	14937
#	26757
#	44642
#	61532
#	75927
#	85182
#	95850
#	119457
#	131120
#	143842
#	169517
#	189600
#	206062
#	224185
#	239550
#	252440
#	267212
#	282997
#	304152
#
# Disc length: 4211 seconds
#
# Revision: 0
# Processed by: cddbd v1.5.1PL0 Copyright (c) Steve Scherf et al.
# Submitted via: dBpowerAMP V4.0
#
DISCID=37107114
DTITLE=Various Artist - This is Soul (stone love)
DYEAR=1900
DGENRE=Soul
TTITLE0=Knock on Wood - Eddie Floyd
TTITLE1=Under the Broadboard - The Driffters
TTITLE2=Rainy Night in Geogia - Brook Benton
TTITLE3=Hold On I'm Comin' - Sam and Dave
TTITLE4=Warm and Tender Love - Percy Sledge
TTITLE5=Every Beat of my Heart - Glayds Knight and the Pips
TTITLE6=Papa has got a new bag - James Brown
TTITLE7=A Woman in Love - The Three Degrees
TTITLE8=Barefootin' - Robert Parker
TTITLE9=The Challenge - Jerry Butler
TTITLE10=Me and Mrs Jones - Billy Paul
TTITLE11=Stoned Love - The Supremes
TTITLE12=First I Look at the Purse - The Contours
TTITLE13=Heatwave - Martha Reeves
TTITLE14=My Cherie Armour - Syliva Moy
TTITLE15=On Broadway - The Drifters
TTITLE16=I'll pick a Rose for my Rose - Marv Johnson
TTITLE17=Reflections - Syreeta
TTITLE18=Love Hangover - The 5th Dimension
TTITLE19=Oh No Not my Baby - Maxine Brown
EXTD=This is Soul (Stoned Love)
EXTT0=
EXTT1=
EXTT2=
EXTT3=
EXTT4=
EXTT5=
EXTT6=
EXTT7=
EXTT8=
EXTT9=
EXTT10=
EXTT11=
EXTT12=
EXTT13=
EXTT14=
EXTT15=
EXTT16=
EXTT17=
EXTT18=
EXTT19=
PLAYORDER=
